<?xml version="1.0" standalone="no"?>
<!DOCTYPE svg PUBLIC "-//W3C//DTD SVG 20010904//EN"
 "http://www.w3.org/TR/2001/REC-SVG-20010904/DTD/svg10.dtd">
<svg version="1.0" xmlns="http://www.w3.org/2000/svg"
 width="248.000000pt" height="248.000000pt" viewBox="0 0 248.000000 248.000000"
 preserveAspectRatio="xMidYMid meet">
<metadata>
Created by potrace 1.11, written by Peter Selinger 2001-2013
</metadata>
<g transform="translate(0.000000,248.000000) scale(0.100000,-0.100000)"
fill="#000000" stroke="none">
<path d="M1030 2213 c-55 -8 -168 -37 -214 -55 -108 -42 -139 -59 -266 -145
-45 -31 -176 -170 -215 -229 -341 -514 -161 -1187 390 -1461 57 -29 139 -59
181 -67 10 -2 39 -10 64 -17 34 -9 175 -13 564 -13 l518 -1 67 75 c73 83 108
121 175 195 25 28 46 52 46 56 0 3 -281 6 -625 7 -511 1 -637 4 -697 17 -239
49 -445 251 -503 492 -99 414 216 814 640 814 183 1 350 -68 479 -197 221
-222 248 -592 62 -849 -28 -38 -33 -52 -23 -61 6 -6 55 -46 107 -89 52 -43
105 -87 117 -98 l21 -19 52 74 c70 99 127 221 157 337 21 81 25 118 25 241 1
125 -3 159 -26 245 -101 386 -400 664 -793 739 -65 12 -243 18 -303 9z"/>
</g>
</svg>
